<?xml version="1.0" encoding="UTF-8"?>
<svg id="Layer_1" xmlns="http://www.w3.org/2000/svg" version="1.1" viewBox="0 0 1080 301">
  <!-- Generator: Adobe Illustrator 30.3.0, SVG Export Plug-In . SVG Version: 2.1.3 Build 182)  -->
  <defs>
    <style>
      .st0 {
        fill: #fff;
      }
    </style>
  </defs>
  <g>
    <path class="st0" d="M551.06,140.27v-72.43h52.87v11.38h-39.42v49.66h40.87v11.38h-54.32ZM563.47,109.02v-11.07h36.01v11.07h-36.01Z"/>
    <path class="st0" d="M620.38,140.27v-72.43h13.45v72.43h-13.45Z"/>
    <path class="st0" d="M653.39,140.27v-72.43h11.07l31.66,52.87h-5.79l31.14-52.87h11.07l.21,72.43h-12.93v-52.46h2.58l-26.28,44.28h-6.1l-26.9-44.28h3.1v52.46h-12.83Z"/>
    <path class="st0" d="M741.96,140.27l32.59-72.43h13.24l32.69,72.43h-14.17l-27.94-65.29h5.38l-28.04,65.29h-13.76ZM756.96,123.51l3.73-10.55h39.01l3.62,10.55h-46.35Z"/>
    <path class="st0" d="M829.7,140.27v-72.43h11.07l45.42,55.87h-5.48v-55.87h13.24v72.43h-11.07l-45.32-55.87h5.48v55.87h-13.35Z"/>
    <path class="st0" d="M553.96,233.57v-72.43h48.42v4.76h-43.15v62.91h44.7v4.76h-49.97ZM558.61,199.11v-4.66h39.21v4.66h-39.21Z"/>
    <path class="st0" d="M642.21,234.08c-5.38,0-10.47-.91-15.26-2.74-4.8-1.83-8.5-4.19-11.12-7.09l2.38-3.93c2.48,2.55,5.88,4.71,10.19,6.47,4.31,1.76,8.88,2.64,13.71,2.64s8.78-.64,11.85-1.91c3.07-1.28,5.35-2.98,6.83-5.12,1.48-2.14,2.22-4.52,2.22-7.14,0-3.1-.83-5.59-2.48-7.45-1.66-1.86-3.83-3.35-6.52-4.45-2.69-1.1-5.62-2.03-8.8-2.79-3.17-.76-6.38-1.57-9.62-2.43-3.24-.86-6.21-1.98-8.9-3.36-2.69-1.38-4.85-3.26-6.47-5.64-1.62-2.38-2.43-5.47-2.43-9.26,0-3.45.9-6.62,2.69-9.52,1.79-2.9,4.59-5.24,8.38-7.04,3.79-1.79,8.66-2.69,14.59-2.69,4,0,7.95.59,11.85,1.76,3.9,1.17,7.23,2.76,9.98,4.76l-1.96,4.24c-3.04-2.07-6.3-3.6-9.78-4.61-3.48-1-6.85-1.5-10.09-1.5-4.62,0-8.45.66-11.48,1.97-3.04,1.31-5.28,3.05-6.72,5.23-1.45,2.17-2.17,4.6-2.17,7.29,0,3.1.81,5.59,2.43,7.45,1.62,1.86,3.78,3.35,6.47,4.45,2.69,1.1,5.66,2.04,8.9,2.79,3.24.76,6.45,1.57,9.62,2.43,3.17.86,6.1,1.98,8.8,3.36,2.69,1.38,4.86,3.24,6.52,5.59,1.65,2.34,2.48,5.38,2.48,9.1,0,3.38-.93,6.54-2.79,9.47-1.86,2.93-4.71,5.28-8.54,7.03-3.83,1.76-8.74,2.64-14.74,2.64Z"/>
    <path class="st0" d="M699.02,233.57v-67.67h-26.07v-4.76h57.43v4.76h-26.07v67.67h-5.28Z"/>
    <path class="st0" d="M727.68,233.57l33.32-72.43h5.28l33.32,72.43h-5.69l-31.45-69.12h2.28l-31.35,69.12h-5.69ZM739.89,213.18l1.76-4.45h43.35l1.76,4.45h-46.87Z"/>
    <path class="st0" d="M822.97,233.57v-67.67h-26.07v-4.76h57.43v4.76h-26.07v67.67h-5.28Z"/>
    <path class="st0" d="M867.36,233.57v-72.43h48.42v4.76h-43.15v62.91h44.7v4.76h-49.98ZM872.01,199.11v-4.66h39.21v4.66h-39.21Z"/>
    <path class="st0" d="M955.62,234.08c-5.38,0-10.47-.91-15.26-2.74-4.79-1.83-8.5-4.19-11.12-7.09l2.38-3.93c2.48,2.55,5.88,4.71,10.19,6.47,4.31,1.76,8.88,2.64,13.71,2.64s8.78-.64,11.85-1.91c3.07-1.28,5.34-2.98,6.83-5.12,1.48-2.14,2.22-4.52,2.22-7.14,0-3.1-.83-5.59-2.48-7.45-1.66-1.86-3.83-3.35-6.52-4.45-2.69-1.1-5.62-2.03-8.8-2.79-3.17-.76-6.38-1.57-9.62-2.43-3.24-.86-6.21-1.98-8.9-3.36-2.69-1.38-4.85-3.26-6.47-5.64-1.62-2.38-2.43-5.47-2.43-9.26,0-3.45.9-6.62,2.69-9.52,1.79-2.9,4.59-5.24,8.38-7.04,3.79-1.79,8.66-2.69,14.59-2.69,4,0,7.95.59,11.85,1.76,3.9,1.17,7.22,2.76,9.98,4.76l-1.96,4.24c-3.04-2.07-6.3-3.6-9.78-4.61-3.48-1-6.85-1.5-10.09-1.5-4.62,0-8.45.66-11.49,1.97-3.04,1.31-5.28,3.05-6.72,5.23-1.45,2.17-2.17,4.6-2.17,7.29,0,3.1.81,5.59,2.43,7.45,1.62,1.86,3.78,3.35,6.47,4.45,2.69,1.1,5.66,2.04,8.9,2.79,3.24.76,6.45,1.57,9.62,2.43,3.17.86,6.1,1.98,8.79,3.36,2.69,1.38,4.86,3.24,6.52,5.59,1.65,2.34,2.48,5.38,2.48,9.1,0,3.38-.93,6.54-2.79,9.47-1.86,2.93-4.71,5.28-8.54,7.03-3.83,1.76-8.74,2.64-14.74,2.64Z"/>
  </g>
  <g>
    <g>
      <path class="st0" d="M456.95,152.12c0,1.51-.03,2.99-.08,4.48-1.4,30.86-18.44,58.55-45.57,74.02-14.39,8.21-30.28,12.35-46.18,12.35-14.89,0-29.8-3.63-43.47-10.89l-15.23-8.11c-2.12-1.13-1.96-4.21.26-5.11l26.26-10.71c2.06-.84,4.36-.78,6.4.13,18.48,8.24,39.66,7.25,57.52-2.96,18.68-10.68,29.94-28.9,30.89-50.04.05-1.03.05-2.09.05-3.15,0-13.33-3.79-26.23-11.02-37.35-15.97-24.64-47.9-34.25-75.85-22.84l-125.12,51.02c-7.95,3.25-17.11-1.08-19.54-9.57-2.06-7.19,1.96-14.74,8.89-17.57l124.77-50.88c40.9-16.66,87.71-2.38,111.29,33.96,10.28,15.87,15.71,34.25,15.71,53.22Z"/>
      <path class="st0" d="M350.46,185.02l-125.12,51.02c-11.47,4.69-23.42,6.94-35.18,6.94-30.17,0-59.16-14.76-76.11-40.9-10.28-15.84-15.74-34.25-15.74-53.22,0-1.48.05-2.99.11-4.45,1.4-30.89,18.44-58.55,45.57-74.04,27.87-15.92,61.38-16.45,89.62-1.46l15.25,8.11c2.12,1.13,1.96,4.21-.26,5.12l-26.28,10.71c-2.06.84-4.36.77-6.4-.13-18.46-8.24-39.64-7.2-57.5,2.96-18.68,10.68-29.94,28.9-30.89,50.04-.05,1.03-.08,2.09-.08,3.15,0,13.33,3.81,26.25,11.05,37.35,15.97,24.66,47.87,34.25,75.85,22.86l125.12-51.02c7.47-3.05,15.95.53,18.99,7.97,3.02,7.44-.56,15.95-8,18.99Z"/>
    </g>
    <path class="st0" d="M230.48,184.33c-5.75,0-11.19-3.42-13.5-9.07-3.04-7.45.54-15.95,7.99-18.99l97.63-39.81c7.47-3.04,15.95.54,18.99,7.99,3.04,7.45-.54,15.95-7.99,18.99l-97.63,39.81c-1.8.73-3.67,1.08-5.5,1.08Z"/>
  </g>
</svg>